<svg xmlns="http://www.w3.org/2000/svg" viewBox="0 0 581.103 581.104">
    <g>
      <path class="handle" d="M315.416,378.768l-3.37-7.256c47.938-22.263,223.516-22.519,230.966-22.519c6.684,0,9.288-2.604,9.288-9.287   s-2.604-9.287-9.288-9.287l-218.168,0.001v-8l218.168-0.001c11.148,0,17.288,6.14,17.288,17.287   c0,10.986-6.301,17.287-17.288,17.287C541.205,356.993,361.765,357.242,315.416,378.768z"></path>

      <path class="pan outer" d="M303.554,383.568l-251.017-0.016c-9.736-0.875-17.838-8.203-19.743-17.84l-13.123-52.152h291.01   c10.021,0,18.174,8.152,18.174,18.174c0,0.032-0.009,3.037-0.314,4.571l-5.026,29.214c-1.877,9.771-10.006,17.155-19.782,18.033   L303.554,383.568z"></path>

      <path class="pan inner" d="M53.085,375.568h250.099c6.167-0.629,11.278-5.328,12.46-11.481l5.07-29.444c0.07-0.559,0.141-2.231,0.141-2.908   c0-5.61-4.564-10.174-10.174-10.174H29.934l10.694,42.526C41.81,370.24,46.92,374.939,53.085,375.568z"></path>

      <path class="simmer1" d="M162.108,286.13
                               c-1.467,0-2.88-0.811-3.581-2.213
                               c-4.851-9.703-4.851-14.91-4.851-19.505
                               c0-7.294,2.356-14.362,4.635-21.197
                               c2.172-6.516,4.224-12.67,4.224-18.664
                               c0-4.313,0-12.344-4.007-20.357   c-0.988-1.976-0.187-4.379,1.789-5.366
                               c1.976-0.991,4.379-0.187,5.367,1.788
                               c4.852,9.703,4.852,19.315,4.852,23.936
                               c0,7.292-2.356,14.359-4.634,21.194
                               c-2.172,6.517-4.224,12.671-4.224,18.667
                               c0,4.246,0,7.913,4.006,15.929
                               c0.988,1.976,0.187,4.378-1.789,5.366
                               C163.32,285.994,162.709,286.13,162.108,286.13z"></path>

      <path class="simmer2" d="M188.678,246.267c-0.602,0-1.212-0.136-1.786-0.424c-1.976-0.987-2.777-3.391-1.789-5.366   c4.007-8.013,4.007-16.042,4.007-20.355c0-5.994-2.052-12.149-4.225-18.667c-2.278-6.835-4.635-13.903-4.635-21.196   c0-4.595,0-9.802,4.852-19.506c0.989-1.976,3.391-2.773,5.367-1.789c1.976,0.988,2.776,3.391,1.789,5.367   c-4.007,8.015-4.007,11.682-4.007,15.928c0,5.994,2.052,12.15,4.225,18.667c2.278,6.835,4.635,13.903,4.635,21.196   c0,4.619,0,14.231-4.852,23.934C191.557,245.456,190.145,246.267,188.678,246.267z"></path>
    </g>
  </svg>